<svg xmlns="http://www.w3.org/2000/svg" version="1.1" xlink="http://www.w3.org/1999/xlink" xmlns:svgjs="http://svgjs.com/svgjs" width="100%" height="100%" viewBox="13.785070419311523 93.99000549316406 492.2149353027344 296.6309814453125">
    <g fill="url(#SvgjsLinearGradient1002)">
        <path d="M490.818 105.206H283.059c-4.887-6.783-12.833-11.216-21.833-11.216-14.864 0-26.914 12.05-26.914 26.914s12.05 26.914 26.914 26.914c9.451 0 17.749-4.881 22.551-12.249h207.041c8.385 0 15.182-6.797 15.182-15.182s-6.797-15.181-15.182-15.181z"></path>
        <path d="M292.094 153.787c-8.078 7.588-18.935 12.249-30.866 12.249-24.887 0-45.134-20.246-45.134-45.134 0-1.196.061-2.379.153-3.553H28.967a15.182 15.182 0 0 0-15.018 17.407l30.213 203.939c.645 28.744 24.227 51.926 53.122 51.926h320.335c28.895 0 52.477-23.182 53.122-51.926l27.6-186.306a21.164 21.164 0 0 1-7.524 1.397l-198.723.001zm-91.247 153.336c0 8.385-6.797 15.182-15.182 15.182s-15.182-6.797-15.182-15.182v-66.8c0-8.385 6.797-15.182 15.182-15.182s15.182 6.797 15.182 15.182v66.8zm74.39 0c0 8.385-6.797 15.182-15.182 15.182s-15.182-6.797-15.182-15.182v-66.8c0-8.385 6.797-15.182 15.182-15.182 8.385 0 15.182 6.797 15.182 15.182v66.8zm74.391 0c0 8.385-6.797 15.182-15.182 15.182s-15.182-6.797-15.182-15.182v-66.8c0-8.385 6.797-15.182 15.182-15.182s15.182 6.797 15.182 15.182v66.8z"></path>
    </g>
    <defs>
        <linearGradient gradientUnits="userSpaceOnUse" id="SvgjsLinearGradient1002" x1="62.68105888366715" y1="439.5169754028319" x2="457.10401725769043" y2="45.09401702880857">
            <stop stop-color="#65bbf1" offset="0.05"></stop>
            <stop stop-color="#1280c4" offset="0.95"></stop>
        </linearGradient>
    </defs>
</svg>